<svg width="1600" height="900" viewBox="0 0 1600 900" xmlns="http://www.w3.org/2000/svg">
  <defs>
    <linearGradient id="g1" x1="0" y1="0" x2="1" y2="1">
      <stop offset="0%" stop-color="#001A72"/>
      <stop offset="100%" stop-color="#0A2D96"/>
    </linearGradient>
    <linearGradient id="g2" x1="0" y1="0" x2="0" y2="1">
      <stop offset="0%" stop-color="#F4F6FA"/>
      <stop offset="100%" stop-color="#E8ECF6"/>
    </linearGradient>
  </defs>
  <rect width="1600" height="900" fill="url(#g2)"/>
  <g opacity="0.12">
    <rect x="150" y="180" width="120" height="520" fill="#001A72"/>
    <rect x="300" y="140" width="160" height="560" fill="#001A72"/>
    <rect x="500" y="220" width="180" height="480" fill="#001A72"/>
    <rect x="720" y="100" width="140" height="600" fill="#001A72"/>
    <rect x="900" y="200" width="200" height="500" fill="#001A72"/>
    <rect x="1150" y="160" width="180" height="540" fill="#001A72"/>
  </g>
  <g opacity="0.9">
    <path d="M120 720 L1480 720 L1480 740 L120 740 Z" fill="#CCD6EB"/>
  </g>
  <g>
    <rect x="220" y="280" width="220" height="420" rx="6" fill="white" stroke="#CCD6EB"/>
    <rect x="460" y="240" width="240" height="460" rx="6" fill="white" stroke="#CCD6EB"/>
    <rect x="720" y="300" width="260" height="400" rx="6" fill="white" stroke="#CCD6EB"/>
    <rect x="1000" y="260" width="260" height="440" rx="6" fill="white" stroke="#CCD6EB"/>
    <rect x="1280" y="320" width="140" height="380" rx="6" fill="white" stroke="#CCD6EB"/>
    <rect x="160" y="340" width="40" height="360" rx="4" fill="#00A19A"/>
  </g>
  <rect x="0" y="0" width="1600" height="900" fill="url(#g1)" opacity="0.06"/>
</svg>

